<svg width="419" height="50" viewBox="0 0 419 50" fill="none" xmlns="http://www.w3.org/2000/svg">
<g clip-path="url(#clip0_83_853)">
<path d="M178.996 12.1809L180.225 22.2919H187.695C187.221 20.6332 184.793 12.1737 184.793 12.1737H178.996V12.1809Z" fill="#EFEFEF"/>
<path d="M170.386 12.2097C170.386 12.2097 168.01 20.4818 167.492 22.2919H177.234C176.96 19.5082 176.59 14.7988 176.36 12.1881L170.386 12.2097Z" fill="#EFEFEF"/>
<path d="M197.415 0H157.757C154.537 0 151.923 2.5458 151.923 5.68297V44.317C151.923 47.4542 154.537 50 157.757 50H197.415C200.635 50 203.248 47.4542 203.248 44.317V5.68297C203.248 2.5458 200.635 0 197.415 0ZM193.965 41.8794C192.447 37.1628 189.234 27.398 188.612 25.5156H180.721L183.867 41.8794H179.758C179.188 37.4657 177.878 27.6792 177.612 25.5156H166.677C165.019 30.6794 162.865 36.7229 161.207 41.8794C160.015 41.8722 158.453 41.8794 157.476 41.8794H156.565C160.681 32.1073 164.842 22.5155 168.047 12.2963H160.999L162.324 8.12779C162.324 8.12779 172.237 8.9211 177.582 8.92831C183.208 8.93553 192.854 8.1927 192.854 8.1927L194.179 12.3612H187.132C190.33 22.5588 194.483 32.1289 198.592 41.8794H193.957H193.965Z" fill="#EFEFEF"/>
<path d="M12.6665 14.2867H10.4678L2.95378 35.5762L0 36.0089V37.4081H8.06922V36.0089L4.63425 35.5474L6.58863 29.951H14.7615L16.7085 35.6123L13.2439 36.0162V37.4081H22.8307V36.0162L20.1583 35.6988L12.6665 14.2867ZM7.14385 28.3499L10.7047 18.1451L14.2137 28.3499H7.14385ZM45.8539 14.4526H49.052V15.8517L45.8169 16.2123C45.7577 19.1259 45.7429 22.09 45.7429 25.0902V26.7777C45.7429 29.7274 45.7577 32.6987 45.8169 35.6484L49.0446 36.0089V37.4081H39.1172V36.0089L42.3523 35.6484C42.4115 32.8213 42.4115 29.8572 42.4115 26.4532H31.0258C31.0258 29.8067 31.0258 32.7708 31.085 35.6484L34.3201 36.0089V37.4081H24.3927V36.0089L27.6278 35.6484C27.6871 32.7347 27.7019 29.7779 27.7019 26.7777V25.0902C27.7019 22.1405 27.6871 19.1692 27.6278 16.2195L24.3927 15.8589V14.4598H34.3201V15.8589L31.0924 16.2195C31.0332 19.0538 31.0184 21.9386 31.0184 24.8594H42.4041C42.4041 21.989 42.3893 19.0971 42.3301 16.2195L39.1098 15.8589V14.4598H45.8391L45.8539 14.4526ZM70.0838 26.7777V25.0902C70.0838 22.1405 70.0986 19.1692 70.1578 16.2123L73.3855 15.8517V14.4526H56.3883V15.8517L59.6234 16.2772C58.9794 25.732 56.3661 31.6169 52.7313 35.6772H50.7991L51.0064 40.675H53.02L53.8047 37.4153H70.8981L71.5496 40.675H73.5632L73.7705 35.6772H70.1578C70.0986 32.7564 70.0838 29.7851 70.0838 26.7777ZM66.7599 26.7777C66.7599 29.7346 66.7451 32.7131 66.6859 35.6772H55.3223C58.5426 31.9775 61.0892 25.7753 61.7777 16.1835H66.6859C66.7451 19.1043 66.7599 22.0756 66.7599 25.0829V26.7705V26.7777ZM85.9928 14.4526H76.517V15.8517L79.7521 16.2123C79.8113 19.1692 79.8261 22.1405 79.8261 25.0902V26.7777C79.8261 29.7779 79.8113 32.742 79.7521 35.6484L76.517 36.0089V37.4081H86.4888V36.0089L83.2167 35.6411C83.1648 33.1675 83.1574 30.7875 83.15 28.3427H85.0008C92.2113 28.3427 94.9133 25.119 94.9133 21.2678C94.9133 17.4167 91.9225 14.4454 85.9928 14.4454V14.4526ZM85.4968 26.7489H83.15V25.0829C83.15 22.0251 83.1648 19.0105 83.2241 16.0464H85.3561C89.5462 16.0464 91.4413 17.9504 91.4413 21.2678C91.4413 24.5853 89.7609 26.7417 85.4968 26.7417V26.7489ZM113.354 31.314H115.383L115.138 37.4081H96.9047V36.0089L100.14 35.6484C100.199 32.7347 100.214 29.7707 100.214 26.7777V25.0902C100.214 22.1405 100.199 19.1692 100.14 16.2123L96.9047 15.8517V14.4526H114.435L114.679 20.5467H112.651L111.874 16.1763H103.612C103.553 19.0322 103.538 21.9386 103.538 24.881H108.749L109.223 21.6212H110.837V29.7058H109.223L108.772 26.482H103.53C103.53 29.7346 103.53 32.7347 103.597 35.6772H112.569L113.347 31.3068L113.354 31.314ZM139.768 25.0829V26.7705C139.768 29.7202 139.783 32.6915 139.842 35.6411L143.07 36.0017V37.4008H133.142V36.0017L136.385 35.6411C136.444 32.7131 136.444 29.6553 136.444 26.107V20.1789L124.74 34.1699V35.6339L128.056 36.0017V37.4008H118.129V36.0017L121.364 35.6411C121.423 32.7275 121.438 29.7707 121.438 26.7705V25.0829C121.438 22.1333 121.423 19.162 121.364 16.2123L118.129 15.8517V14.4526H128.056V15.8517L124.821 16.2123C124.762 19.1259 124.747 22.09 124.747 25.0902V31.7034L136.451 17.6331V16.2267L133.135 15.8589V14.4598H143.062V15.8589L139.827 16.2195C139.768 19.1331 139.753 22.0972 139.753 25.0974L139.768 25.0829ZM124.584 7.73114C124.873 7.16861 125.273 6.78638 126.058 6.78638C126.946 6.78638 127.738 7.40661 127.738 8.99322C127.738 9.63508 127.708 10.0894 127.664 10.4933C128.486 11.0125 129.737 11.2794 130.61 11.2794C131.484 11.2794 132.728 11.0125 133.557 10.4933C133.512 10.0894 133.483 9.63508 133.483 8.99322C133.483 7.40661 134.275 6.78638 135.163 6.78638C135.948 6.78638 136.348 7.16861 136.636 7.73114C136.636 10.5366 134.245 12.6713 130.618 12.6713C126.99 12.6713 124.599 10.5366 124.599 7.73114H124.584Z" fill="white"/>
<path d="M225.057 14.2867H222.858L215.344 35.5834L212.391 36.0162V37.4153H220.46V36.0162L217.025 35.5546L218.979 29.9582H227.152L229.099 35.6195L225.635 36.0234V37.4153H235.221V36.0234L232.549 35.706L225.057 14.294V14.2867ZM219.534 28.3499L223.095 18.1451L226.604 28.3499H219.542H219.534ZM249.183 25.458C253.092 24.6791 254.676 22.5083 254.676 20.0635C254.676 16.7893 251.893 14.4526 246.999 14.4526H236.783V15.8517L240.018 16.2123C240.078 19.1692 240.093 22.1405 240.093 25.0974V26.7705C240.093 29.7707 240.078 32.7347 240.018 35.6483L236.783 36.0089V37.408H246.452C253.225 37.408 255.839 34.2348 255.839 31.1265C255.839 28.3643 253.877 26.1142 249.169 25.4507L249.183 25.458ZM245.956 16.0537C249.531 16.0537 251.367 17.1571 251.367 20.2798C251.367 23.4026 249.531 24.7512 245.275 24.7512H243.424C243.424 21.8087 243.439 18.9096 243.498 16.0537H245.956ZM245.652 35.8142H243.49C243.424 32.8141 243.424 29.7418 243.424 26.345H245.386C250.235 26.345 252.352 27.9461 252.352 31.1265C252.352 34.1411 250.153 35.807 245.652 35.807V35.8142ZM270.489 25.458C274.398 24.6791 275.982 22.5083 275.982 20.0635C275.982 16.7893 273.199 14.4526 268.305 14.4526H258.089V15.8517L261.324 16.2123C261.383 19.1692 261.398 22.1405 261.398 25.0974V26.7705C261.398 29.7707 261.383 32.7347 261.324 35.6483L258.089 36.0089V37.408H267.757C274.531 37.408 277.144 34.2348 277.144 31.1265C277.144 28.3643 275.183 26.1142 270.474 25.4507L270.489 25.458ZM267.261 16.0537C270.837 16.0537 272.673 17.1571 272.673 20.2798C272.673 23.4026 270.837 24.7512 266.58 24.7512H264.73C264.73 21.8087 264.744 18.9096 264.804 16.0537H267.261ZM266.958 35.8142H264.796C264.73 32.8141 264.73 29.7418 264.73 26.345H266.691C271.54 26.345 273.658 27.9461 273.658 31.1265C273.658 34.1411 271.459 35.807 266.958 35.807V35.8142ZM290.484 14.294H288.286L280.772 35.5907L277.818 36.0234V37.4225H285.887V36.0234L282.452 35.5618L284.407 29.9654H292.579L294.526 35.6267L291.062 36.0306V37.4225H300.649V36.0306L297.976 35.7133L290.484 14.3012V14.294ZM284.962 28.3571L288.523 18.1523L292.032 28.3571H284.969H284.962ZM320.022 35.67L323.635 36.0162V37.4153C322.961 37.6316 321.525 37.7686 320.466 37.7686C318.179 37.7686 317.024 37.2566 316.521 35.569L314.655 29.4533C314.07 27.5133 312.738 26.7922 310.347 26.7922H308.844C308.844 29.8861 308.844 32.7997 308.91 35.6556L312.145 36.0162V37.4153H302.211V36.0162L305.446 35.6556C305.505 32.742 305.52 29.7851 305.52 26.7849V25.0974C305.52 22.1477 305.505 19.1764 305.446 16.2267L302.211 15.8661V14.467H312.145V15.8661L308.91 16.2267C308.851 19.061 308.851 22.0035 308.851 25.2416H309.932C312.479 25.2416 313.434 24.7223 315.07 20.6621C317.217 15.3685 318.727 14.1641 320.829 13.8829C322.043 13.9838 322.702 14.8421 322.702 15.7508C322.702 16.6595 321.94 17.6835 320.207 17.6835C319.622 17.6835 319.03 17.6186 318.505 17.5321C317.868 18.5273 317.328 19.674 316.572 21.3616C315.388 24.03 314.433 25.2777 313.041 25.9195C315.758 26.4676 317.313 27.7874 318.112 30.1745L320.022 35.6844V35.67ZM343.578 14.4598H345.585V15.8589L342.772 16.27L334.902 33.8165C333.836 36.2181 332.541 37.9489 330.031 37.9489C328.558 37.9489 327.373 37.3143 327.373 35.1652C327.832 34.4728 328.513 34.0978 329.587 34.0978C330.52 34.0978 331.201 34.4223 332.2 35.3599C332.866 34.5594 333.459 33.4776 334.088 32.1001L326.559 16.1907L324.131 15.8734V14.4743H333.266V15.8734L330.216 16.2267L335.65 28.4653L340.714 16.2916L337.826 15.8661V14.467H343.578V14.4598ZM372.857 35.6556L376.092 36.0162V37.4153H366.483V36.0162L369.444 35.6556C369.504 32.742 369.518 29.7851 369.518 26.821V18.2244L361.893 37.4153H360.109L352.062 18.2244L352.262 24.7728V35.5834L355.149 36.0162V37.4153H347.258V36.0162L350.441 35.5762V16.234L347.273 15.8517V14.4526H353.78L361.664 33.3405L369.126 14.4526H376.077V15.8517L372.85 16.2123C372.791 19.1259 372.776 22.09 372.776 25.0901V26.7777C372.776 29.7274 372.791 32.6987 372.85 35.6483L372.857 35.6556ZM388.107 13.9334C382.666 13.9334 377.306 18.3975 377.306 25.9339C377.306 33.4704 382.629 37.9345 388.107 37.9345C393.585 37.9345 398.871 33.4704 398.871 25.9339C398.871 18.3975 393.548 13.9334 388.107 13.9334ZM388.107 36.2037C383.221 36.2037 381.148 31.1121 381.148 25.9339C381.148 20.7558 383.221 15.6642 388.107 15.6642C392.993 15.6642 395.029 20.763 395.029 25.9339C395.029 31.1049 392.993 36.2037 388.107 36.2037ZM412.33 25.458C416.238 24.6791 417.823 22.5083 417.823 20.0635C417.823 16.7893 415.039 14.4526 410.146 14.4526H399.93V15.8517L403.165 16.2123C403.224 19.1692 403.239 22.1405 403.239 25.0974V26.7705C403.239 29.7707 403.224 32.7347 403.165 35.6483L399.93 36.0089V37.408H409.598C416.372 37.408 418.985 34.2348 418.985 31.1265C418.985 28.3643 417.023 26.1142 412.315 25.4507L412.33 25.458ZM409.102 16.0537C412.678 16.0537 414.514 17.1571 414.514 20.2798C414.514 23.4026 412.678 24.7512 408.421 24.7512H406.57C406.57 21.8087 406.585 18.9096 406.644 16.0537H409.102ZM408.799 35.8142H406.637C406.57 32.8141 406.57 29.7418 406.57 26.345H408.532C413.381 26.345 415.498 27.9461 415.498 31.1265C415.498 34.1411 413.3 35.807 408.799 35.807V35.8142Z" fill="white"/>
</g>
<defs>
<clipPath id="clip0_83_853">
<rect width="419" height="50" fill="white"/>
</clipPath>
</defs>
</svg>
