<svg width="24" height="24" viewBox="0 0 24 24" fill="none" xmlns="http://www.w3.org/2000/svg">
<g clip-path="url(#clip0_117_50)">
<path d="M18.9602 16.61L17.7902 15.44C17.2002 14.85 16.2502 14.85 15.6702 15.44L14.7502 16.36C14.5402 16.57 14.2302 16.63 13.9702 16.52C12.6302 15.93 11.3102 15.05 10.1402 13.87C8.97018 12.7 8.08018 11.38 7.50018 10.05C7.38018 9.77 7.45018 9.45 7.66018 9.24L8.49018 8.41C9.16018 7.74 9.16018 6.79 8.57018 6.2L7.40018 5.03C6.62018 4.25 5.35018 4.25 4.57018 5.03L3.92018 5.68C3.18018 6.42 2.87018 7.49 3.07018 8.55C3.56018 11.16 5.08018 14.02 7.53018 16.47C9.98018 18.92 12.8402 20.44 15.4502 20.93C16.5102 21.13 17.5802 20.82 18.3202 20.08L18.9702 19.43C19.7502 18.65 19.7502 17.38 18.9702 16.6L18.9602 16.61Z" stroke="white" stroke-width="1.5" stroke-linecap="round" stroke-linejoin="round"/>
<path d="M13 6.99C14.03 6.98 15.07 7.36 15.85 8.14" stroke="white" stroke-width="1.5" stroke-linecap="round" stroke-linejoin="round"/>
<path d="M18.68 5.32C17.11 3.75 15.05 2.97 13 2.97" stroke="white" stroke-width="1.5" stroke-linecap="round" stroke-linejoin="round"/>
<path d="M17.0104 11C17.0204 9.97 16.6404 8.93 15.8604 8.15" stroke="white" stroke-width="1.5" stroke-linecap="round" stroke-linejoin="round"/>
<path d="M18.6807 5.32C20.2507 6.89 21.0307 8.95 21.0307 11" stroke="white" stroke-width="1.5" stroke-linecap="round" stroke-linejoin="round"/>
</g>
<defs>
<clipPath id="clip0_117_50">
<rect width="24" height="24" fill="white"/>
</clipPath>
</defs>
</svg>
