<svg width="70" height="68" viewBox="0 0 70 68" fill="none" xmlns="http://www.w3.org/2000/svg">
<path d="M36.8936 16.566L38.5682 30.317H48.7474C48.1018 28.0611 44.7928 16.5562 44.7928 16.5562H36.8936V16.566Z" fill="white"/>
<path d="M25.1604 16.6054C25.1604 16.6054 21.922 27.8553 21.2158 30.3172H34.4922C34.1189 26.5312 33.6145 20.1265 33.3017 16.5759L25.1604 16.6054Z" fill="white"/>
<path d="M61.9932 0H7.94966C3.56121 0 0 3.46228 0 7.72883V60.2712C0 64.5377 3.56121 68 7.94966 68H61.9932C66.3817 68 69.9429 64.5377 69.9429 60.2712V7.72883C69.9429 3.46228 66.3817 0 61.9932 0ZM57.292 56.956C55.2239 50.5415 50.8455 37.2612 49.9981 34.7013H39.2439L43.5314 56.956H37.9324C37.1556 50.9534 35.3699 37.6437 35.0067 34.7013H20.1062C17.8464 41.7239 14.9106 49.9432 12.6508 56.956C11.0266 56.9462 8.89797 56.956 7.5663 56.956H6.32543C11.9346 43.6659 17.6043 30.6211 21.9725 16.7229H12.3684L14.1742 11.0538C14.1742 11.0538 27.6826 12.1327 34.9664 12.1425C42.6336 12.1523 55.7788 11.1421 55.7788 11.1421L57.5846 16.8112H47.9804C52.3386 30.6799 57.9982 43.6954 63.5973 56.956H57.2819H57.292Z" fill="white"/>
</svg>
